<svg width="10" height="15" viewBox="0 0 10 15" fill="none" xmlns="http://www.w3.org/2000/svg">
<path d="M8.656 6.40112L3.17362 0.849006C3.05342 0.726273 2.91041 0.628856 2.75285 0.562376C2.59528 0.495897 2.42628 0.46167 2.25559 0.46167C2.08489 0.46167 1.91589 0.495897 1.75832 0.562376C1.60076 0.628856 1.45775 0.726273 1.33755 0.849006C1.09672 1.09435 0.961548 1.42624 0.961548 1.77218C0.961548 2.11812 1.09672 2.45 1.33755 2.69535L5.91481 7.33084L1.33755 11.9663C1.09672 12.2117 0.961548 12.5436 0.961548 12.8895C0.961548 13.2354 1.09672 13.5673 1.33755 13.8127C1.45837 13.934 1.60165 14.0301 1.75919 14.0952C1.91673 14.1604 2.08542 14.1934 2.25559 14.1924C2.42575 14.1934 2.59444 14.1604 2.75198 14.0952C2.90952 14.0301 3.05281 13.934 3.17362 13.8127L8.656 8.26056C8.77719 8.13883 8.87338 7.994 8.93903 7.83443C9.00467 7.67486 9.03847 7.5037 9.03847 7.33084C9.03847 7.15797 9.00467 6.98682 8.93903 6.82725C8.87338 6.66768 8.77719 6.52285 8.656 6.40112Z" fill="#06DA1E"/>
</svg>
