<svg width="260" height="251" viewBox="0 0 260 251" fill="none" xmlns="http://www.w3.org/2000/svg">
<g opacity="0.6">
<path d="M159.57 184.882C157.395 171.659 160.543 157.964 168.322 146.811C176.101 135.657 187.874 127.958 201.05 125.408C214.227 122.857 227.728 125.664 238.583 133.21C249.439 140.757 256.759 152.425 258.934 165.648C261.11 178.871 257.961 192.565 250.182 203.719C242.403 214.873 230.63 222.572 217.454 225.122C204.277 227.673 190.776 224.866 179.921 217.32C169.066 209.773 161.745 198.105 159.57 184.882ZM192.487 177.722C193.219 182.17 195.681 186.095 199.333 188.633C202.984 191.171 207.525 192.116 211.958 191.258C216.39 190.4 220.35 187.81 222.967 184.058C225.583 180.306 226.642 175.7 225.911 171.252C225.179 166.804 222.717 162.879 219.065 160.341C215.414 157.802 210.872 156.858 206.44 157.716C202.008 158.574 198.048 161.164 195.431 164.916C192.814 168.667 191.755 173.274 192.487 177.722Z" fill="#06590A"/>
<path d="M15.5576 209.661C13.407 196.588 16.5196 183.048 24.2107 172.021C31.9018 160.993 43.5415 153.381 56.569 150.859C69.5965 148.338 82.9448 151.113 93.6774 158.574C104.41 166.035 111.648 177.571 113.798 190.645C115.949 203.718 112.836 217.258 105.145 228.285C97.454 239.313 85.8144 246.925 72.7869 249.446C59.7594 251.968 46.4111 249.193 35.6785 241.732C24.9459 234.271 17.7082 222.735 15.5576 209.661ZM48.5956 202.553C49.3265 206.996 51.7863 210.916 55.4338 213.452C59.0813 215.988 63.6177 216.931 68.0452 216.074C72.4726 215.217 76.4283 212.63 79.0422 208.882C81.656 205.135 82.7138 200.533 81.9829 196.09C81.252 191.647 78.7923 187.726 75.1448 185.191C71.4973 182.655 66.9609 181.712 62.5335 182.569C58.106 183.426 54.1503 186.013 51.5364 189.761C48.9226 193.508 47.8647 198.11 48.5956 202.553Z" fill="#06DA1E"/>
<path d="M103.87 110.735C102.829 104.411 104.335 97.8605 108.056 92.5259C111.776 87.1912 117.407 83.5088 123.709 82.2889C130.012 81.069 136.469 82.4114 141.661 86.0208C146.853 89.6303 150.355 95.2111 151.395 101.536C152.435 107.86 150.93 114.41 147.209 119.745C143.488 125.079 137.857 128.762 131.555 129.982C125.253 131.202 118.795 129.859 113.603 126.25C108.411 122.64 104.91 117.059 103.87 110.735Z" fill="black"/>
<path d="M180.254 34.4633C179.262 28.4331 180.698 22.1878 184.246 17.1014C187.793 12.0149 193.162 8.50395 199.171 7.34078C205.18 6.17762 211.337 7.45753 216.288 10.899C221.238 14.3405 224.576 19.6617 225.568 25.6919C226.56 31.722 225.125 37.9673 221.577 43.0538C218.03 48.1403 212.661 51.6513 206.652 52.8144C200.643 53.9776 194.486 52.6976 189.535 49.2561C184.585 45.8146 181.246 40.4935 180.254 34.4633Z" fill="#FCFCFC"/>
<path d="M28.8162 2.45342C33.7821 0.800158 39.0001 0.154152 44.1722 0.552274C49.3443 0.950397 54.3692 2.38486 58.96 4.77375C63.5509 7.16265 67.6179 10.4592 70.9287 14.4752C74.2394 18.4911 76.7291 23.1479 78.2557 28.1796C81.3388 38.3415 80.3116 49.4135 75.4001 58.96C70.4886 68.5065 62.0951 75.7454 52.0661 79.0842C47.1002 80.7375 41.8822 81.3835 36.7102 80.9854C31.5381 80.5873 26.5132 79.1528 21.9223 76.7639C17.3314 74.375 13.2644 71.0785 9.95368 67.0625C6.64293 63.0466 4.15324 58.3898 2.62665 53.3581C-0.456443 43.1962 0.570763 32.1242 5.48227 22.5777C10.3938 13.0312 18.7872 5.79231 28.8162 2.45342ZM25.4929 44.1504C26.1674 48.2509 28.4375 51.8693 31.8038 54.2095C35.1701 56.5497 39.3569 57.4201 43.443 56.6291C47.5292 55.8382 51.1799 53.4507 53.5923 49.9919C56.0046 46.5331 56.981 42.2863 56.3064 38.1858C55.9724 36.1554 55.2431 34.2221 54.1603 32.4961C53.0775 30.7702 51.6622 29.2855 49.9954 28.1267C48.3285 26.9679 46.4428 26.1578 44.4458 25.7427C42.4487 25.3275 40.3795 25.3154 38.3563 25.707C36.333 26.0987 34.3954 26.8864 32.654 28.0252C30.9125 29.164 29.4014 30.6317 28.2069 32.3443C27.0124 34.0569 26.1579 35.981 25.6923 38.0067C25.2266 40.0324 25.1589 42.12 25.4929 44.1504Z" fill="#7A7A7A"/>
</g>
</svg>
