<svg width="160" height="136" viewBox="0 0 160 136" fill="none" xmlns="http://www.w3.org/2000/svg">
<path d="M5.83758 124.309C6.60418 124.309 7.36328 124.459 8.07153 124.752C8.77977 125.044 9.4233 125.473 9.96537 126.014C10.5074 126.554 10.9374 127.196 11.2308 127.902C11.5242 128.608 11.6752 129.365 11.6752 130.129C11.6752 131.673 11.0601 133.154 9.96537 134.245C8.87061 135.337 7.3858 135.95 5.83758 135.95C4.28936 135.95 2.80455 135.337 1.70979 134.245C0.61503 133.154 6.7675e-08 131.673 0 130.129C-3.35092e-08 129.365 0.150993 128.608 0.444359 127.902C0.737725 127.196 1.16772 126.554 1.70979 126.014C2.25186 125.473 2.89539 125.044 3.60364 124.752C4.31188 124.459 5.07098 124.309 5.83758 124.309Z" fill="#06590A"/>
<path d="M5.88772 98.9238C7.386 98.9238 8.82292 99.5172 9.88236 100.574C10.9418 101.63 11.537 103.063 11.537 104.557C11.537 106.05 10.9418 107.483 9.88236 108.539C8.82292 109.596 7.386 110.189 5.88772 110.189C4.38944 110.189 2.95253 109.596 1.89308 108.539C0.833641 107.483 0.238451 106.05 0.238451 104.557C0.238451 103.063 0.833641 101.63 1.89308 100.574C2.95253 99.5172 4.38944 98.9238 5.88772 98.9238Z" fill="#06DA1E"/>
<path d="M5.83748 73.2385C7.33243 73.2385 8.76615 73.8306 9.82324 74.8846C10.8803 75.9386 11.4742 77.3681 11.4742 78.8587C11.4742 79.5968 11.3284 80.3276 11.0451 81.0095C10.7619 81.6914 10.3467 82.3109 9.82324 82.8328C9.29982 83.3547 8.67844 83.7687 7.99456 84.0511C7.31068 84.3336 6.5777 84.479 5.83748 84.479C5.09726 84.479 4.36428 84.3336 3.6804 84.0511C2.99652 83.7687 2.37514 83.3547 1.85172 82.8328C1.3283 82.3109 0.913103 81.6914 0.629832 81.0095C0.34656 80.3276 0.200761 79.5968 0.200761 78.8587C0.200761 77.3681 0.79463 75.9386 1.85172 74.8846C2.90881 73.8306 4.34253 73.2385 5.83748 73.2385Z" fill="#06DA1E"/>
<path d="M5.93804 25.047C6.67332 25.047 7.4014 25.1914 8.0807 25.4719C8.76001 25.7525 9.37725 26.1637 9.89717 26.6821C10.4171 27.2005 10.8295 27.8159 11.1109 28.4933C11.3923 29.1706 11.5371 29.8965 11.5371 30.6297C11.5371 31.3628 11.3923 32.0888 11.1109 32.7661C10.8295 33.4434 10.4171 34.0588 9.89717 34.5772C9.37725 35.0956 8.76001 35.5069 8.08071 35.7874C7.4014 36.068 6.67332 36.2124 5.93804 36.2124C4.45308 36.2124 3.02894 35.6242 1.97891 34.5772C0.928884 33.5303 0.338983 32.1103 0.338983 30.6297C0.338983 29.1491 0.928883 27.7291 1.97891 26.6821C3.02894 25.6352 4.45308 25.047 5.93804 25.047Z" fill="#06DA1E"/>
<path d="M30.4559 99.1617C31.9409 99.1617 33.365 99.7499 34.415 100.797C35.4651 101.844 36.055 103.264 36.055 104.744C36.055 106.225 35.4651 107.645 34.415 108.692C33.365 109.739 31.9409 110.327 30.4559 110.327C28.9709 110.327 27.5468 109.739 26.4968 108.692C25.4468 107.645 24.8569 106.225 24.8569 104.744C24.8569 103.264 25.4468 101.844 26.4968 100.797C27.5468 99.7499 28.9709 99.1617 30.4559 99.1617Z" fill="#06DA1E"/>
<path d="M30.4556 73.3637C31.1892 73.3637 31.9157 73.5077 32.5935 73.7877C33.2713 74.0676 33.8871 74.4779 34.4059 74.9951C34.9246 75.5124 35.3361 76.1264 35.6169 76.8022C35.8976 77.478 36.0421 78.2024 36.0421 78.9338C36.0421 80.4111 35.4535 81.8279 34.4059 82.8725C33.3582 83.9172 31.9372 84.504 30.4556 84.504C28.974 84.504 27.553 83.9172 26.5054 82.8725C25.4577 81.8279 24.8691 80.4111 24.8691 78.9338C24.8691 78.2024 25.0136 77.478 25.2944 76.8022C25.5751 76.1264 25.9866 75.5124 26.5054 74.9951C27.0241 74.4779 27.64 74.0676 28.3178 73.7877C28.9955 73.5077 29.722 73.3637 30.4556 73.3637Z" fill="#06DA1E"/>
<path d="M30.5561 124.497C32.0411 124.497 33.4652 125.085 34.5153 126.132C35.5653 127.179 36.1552 128.599 36.1552 130.079C36.1552 131.56 35.5653 132.98 34.5153 134.027C33.4652 135.074 32.0411 135.662 30.5561 135.662C29.0712 135.662 27.647 135.074 26.597 134.027C25.547 132.98 24.9571 131.56 24.9571 130.079C24.9571 128.599 25.547 127.179 26.597 126.132C27.647 125.085 29.0712 124.497 30.5561 124.497Z" fill="#06DA1E"/>
<path d="M30.4933 24.9969C31.9849 24.9969 33.4154 25.5877 34.4702 26.6394C35.5249 27.691 36.1174 29.1174 36.1174 30.6046C36.1174 32.0919 35.5249 33.5183 34.4702 34.5699C33.4154 35.6216 31.9849 36.2124 30.4933 36.2124C29.0017 36.2124 27.5711 35.6216 26.5164 34.5699C25.4617 33.5183 24.8691 32.0919 24.8691 30.6046C24.8691 29.1174 25.4617 27.691 26.5164 26.6394C27.5711 25.5877 29.0017 24.9969 30.4933 24.9969Z" fill="#06DA1E"/>
<path d="M30.506 49.7687C31.7146 49.7687 32.8737 50.2474 33.7283 51.0995C34.5829 51.9516 35.063 53.1073 35.063 54.3124C35.063 55.5175 34.5829 56.6732 33.7283 57.5254C32.8737 58.3775 31.7146 58.8562 30.506 58.8562C29.2973 58.8562 28.1382 58.3775 27.2836 57.5254C26.429 56.6732 25.9489 55.5175 25.9489 54.3124C25.9489 53.1073 26.429 51.9516 27.2836 51.0995C28.1382 50.2474 29.2973 49.7687 30.506 49.7687Z" fill="#06DA1E"/>
<path d="M54.9612 124.534C55.6998 124.534 56.4311 124.679 57.1135 124.961C57.7958 125.243 58.4158 125.656 58.9381 126.177C59.4603 126.697 59.8746 127.315 60.1572 127.996C60.4399 128.676 60.5854 129.405 60.5854 130.142C60.5854 130.878 60.4399 131.607 60.1572 132.288C59.8746 132.968 59.4603 133.586 58.9381 134.107C58.4158 134.628 57.7958 135.041 57.1135 135.323C56.4311 135.605 55.6998 135.75 54.9612 135.75C53.4696 135.75 52.0391 135.159 50.9843 134.107C49.9296 133.055 49.337 131.629 49.337 130.142C49.337 128.655 49.9296 127.228 50.9843 126.177C52.0391 125.125 53.4696 124.534 54.9612 124.534Z" fill="#06DA1E"/>
<path d="M54.9987 98.8487C56.5336 98.8487 58.0057 99.4567 59.091 100.539C60.1763 101.621 60.7861 103.089 60.7861 104.619C60.7861 106.15 60.1763 107.617 59.091 108.699C58.0057 109.782 56.5336 110.39 54.9987 110.39C53.4638 110.39 51.9918 109.782 50.9064 108.699C49.8211 107.617 49.2113 106.15 49.2113 104.619C49.2113 103.089 49.8211 101.621 50.9064 100.539C51.9918 99.4567 53.4638 98.8487 54.9987 98.8487Z" fill="#06590A"/>
<path d="M54.9986 73.2635C55.7273 73.2635 56.4489 73.4066 57.1221 73.6847C57.7953 73.9627 58.407 74.3702 58.9223 74.884C59.4375 75.3977 59.8463 76.0076 60.1251 76.6789C60.404 77.3501 60.5475 78.0696 60.5475 78.7961C60.5475 79.5227 60.404 80.2421 60.1251 80.9134C59.8463 81.5846 59.4375 82.1945 58.9223 82.7083C58.407 83.222 57.7953 83.6296 57.1221 83.9076C56.4489 84.1857 55.7273 84.3288 54.9986 84.3288C53.527 84.3288 52.1156 83.7459 51.075 82.7083C50.0344 81.6707 49.4498 80.2635 49.4498 78.7961C49.4498 78.0696 49.5933 77.3501 49.8722 76.6789C50.151 76.0076 50.5598 75.3977 51.075 74.884C51.5903 74.3702 52.202 73.9627 52.8752 73.6847C53.5484 73.4066 54.27 73.2635 54.9986 73.2635Z" fill="#06DA1E"/>
<path d="M55.0866 25.0845C56.5649 25.0845 57.9827 25.67 59.028 26.7123C60.0733 27.7546 60.6605 29.1682 60.6605 30.6422C60.6605 32.1161 60.0733 33.5298 59.028 34.572C57.9827 35.6143 56.5649 36.1998 55.0866 36.1998C53.6083 36.1998 52.1905 35.6143 51.1452 34.572C50.0999 33.5298 49.5126 32.1161 49.5126 30.6422C49.5126 29.1682 50.0999 27.7546 51.1452 26.7123C52.1905 25.67 53.6083 25.0845 55.0866 25.0845Z" fill="#06DA1E"/>
<path d="M79.7049 24.7215C81.2765 24.7215 82.7836 25.344 83.8949 26.452C85.0061 27.56 85.6304 29.0627 85.6304 30.6297C85.6304 32.1966 85.0061 33.6994 83.8949 34.8074C82.7836 35.9154 81.2765 36.5378 79.7049 36.5378C78.9268 36.5378 78.1563 36.385 77.4374 36.0881C76.7184 35.7912 76.0652 35.356 75.515 34.8074C74.9648 34.2587 74.5283 33.6074 74.2305 32.8906C73.9327 32.1738 73.7795 31.4055 73.7795 30.6297C73.7795 29.8538 73.9327 29.0855 74.2305 28.3687C74.5283 27.6519 74.9648 27.0006 75.515 26.452C76.0652 25.9034 76.7184 25.4682 77.4374 25.1713C78.1563 24.8743 78.9268 24.7215 79.7049 24.7215Z" fill="#06590A"/>
<path d="M79.6672 124.484C81.1622 124.484 82.5959 125.076 83.653 126.13C84.7101 127.184 85.3039 128.614 85.3039 130.104C85.3039 131.595 84.7101 133.024 83.653 134.078C82.5959 135.132 81.1622 135.725 79.6672 135.725C78.927 135.725 78.194 135.579 77.5101 135.297C76.8262 135.014 76.2049 134.6 75.6814 134.078C75.158 133.556 74.7428 132.937 74.4596 132.255C74.1763 131.573 74.0305 130.842 74.0305 130.104C74.0305 129.366 74.1763 128.635 74.4596 127.953C74.7428 127.272 75.158 126.652 75.6814 126.13C76.2049 125.608 76.8262 125.194 77.5101 124.912C78.194 124.629 78.927 124.484 79.6672 124.484Z" fill="#06DA1E"/>
<path d="M79.7048 98.7987C81.2397 98.7987 82.7117 99.4067 83.7971 100.489C84.8824 101.571 85.4921 103.039 85.4921 104.569C85.4921 106.1 84.8824 107.567 83.7971 108.65C82.7117 109.732 81.2397 110.34 79.7048 110.34C78.1699 110.34 76.6978 109.732 75.6125 108.65C74.5272 107.567 73.9174 106.1 73.9174 104.569C73.9174 103.039 74.5272 101.571 75.6125 100.489C76.6978 99.4067 78.1699 98.7987 79.7048 98.7987Z" fill="#06590A"/>
<path d="M79.755 73.3136C81.22 73.3136 82.6249 73.8938 83.6608 74.9267C84.6967 75.9596 85.2787 77.3605 85.2787 78.8212C85.2787 80.2819 84.6967 81.6828 83.6608 82.7156C82.6249 83.7485 81.22 84.3288 79.755 84.3288C78.29 84.3288 76.885 83.7485 75.8491 82.7156C74.8132 81.6828 74.2313 80.2819 74.2313 78.8212C74.2313 77.3605 74.8132 75.9596 75.8491 74.9267C76.885 73.8938 78.29 73.3136 79.755 73.3136Z" fill="#06DA1E"/>
<path d="M104.399 98.711C105.167 98.711 105.927 98.8619 106.637 99.155C107.347 99.4481 107.992 99.8778 108.535 100.419C109.078 100.961 109.509 101.604 109.803 102.312C110.097 103.02 110.249 103.778 110.249 104.544C110.249 105.31 110.097 106.069 109.803 106.776C109.509 107.484 109.078 108.127 108.535 108.669C107.992 109.21 107.347 109.64 106.637 109.933C105.927 110.226 105.167 110.377 104.399 110.377C103.63 110.377 102.87 110.226 102.16 109.933C101.45 109.64 100.805 109.21 100.262 108.669C99.7186 108.127 99.2877 107.484 98.9937 106.776C98.6997 106.069 98.5484 105.31 98.5484 104.544C98.5484 102.997 99.1647 101.513 100.262 100.419C101.359 99.3255 102.847 98.711 104.399 98.711Z" fill="#06590A"/>
<path d="M104.474 24.7591C106.025 24.7591 107.513 25.3737 108.61 26.4676C109.707 27.5615 110.324 29.0451 110.324 30.5922C110.324 32.1392 109.707 33.6228 108.61 34.7167C107.513 35.8107 106.025 36.4252 104.474 36.4252C102.922 36.4252 101.434 35.8107 100.337 34.7167C99.2398 33.6228 98.6235 32.1392 98.6235 30.5922C98.6235 29.0451 99.2398 27.5615 100.337 26.4676C101.434 25.3737 102.922 24.7591 104.474 24.7591Z" fill="#06590A"/>
<path d="M104.512 124.509C105.252 124.509 105.985 124.654 106.669 124.937C107.352 125.219 107.974 125.633 108.497 126.155C109.021 126.677 109.436 127.297 109.719 127.979C110.002 128.66 110.148 129.391 110.148 130.129C110.148 130.867 110.002 131.598 109.719 132.28C109.436 132.962 109.021 133.582 108.497 134.103C107.974 134.625 107.352 135.039 106.669 135.322C105.985 135.604 105.252 135.75 104.512 135.75C103.017 135.75 101.583 135.157 100.526 134.103C99.4686 133.049 98.8748 131.62 98.8748 130.129C98.8748 128.639 99.4686 127.209 100.526 126.155C101.583 125.101 103.017 124.509 104.512 124.509Z" fill="#06DA1E"/>
<path d="M104.436 73.3261C105.163 73.3261 105.883 73.4689 106.555 73.7463C107.227 74.0237 107.837 74.4303 108.351 74.9429C108.865 75.4555 109.273 76.0641 109.551 76.7338C109.829 77.4035 109.973 78.1213 109.973 78.8462C109.973 80.3103 109.389 81.7143 108.351 82.7496C107.313 83.7848 105.905 84.3663 104.436 84.3663C102.968 84.3663 101.56 83.7848 100.521 82.7496C99.4832 81.7143 98.9 80.3103 98.9 78.8462C98.9 78.1213 99.0431 77.4035 99.3214 76.7338C99.5996 76.0641 100.007 75.4555 100.521 74.9429C101.036 74.4303 101.646 74.0237 102.318 73.7463C102.989 73.4689 103.709 73.3261 104.436 73.3261Z" fill="#06DA1E"/>
<path d="M103.645 0C104.91 -5.51427e-08 106.124 0.501132 107.019 1.39316C107.913 2.28519 108.416 3.49502 108.416 4.75654C108.416 6.01806 107.913 7.22791 107.019 8.11994C106.124 9.01197 104.91 9.51311 103.645 9.51311C102.38 9.51311 101.167 9.01197 100.272 8.11994C99.3774 7.22791 98.8748 6.01806 98.8748 4.75654C98.8748 3.49502 99.3774 2.28519 100.272 1.39316C101.167 0.501132 102.38 5.51427e-08 103.645 0Z" fill="#06590A"/>
<path d="M103.984 49.6935C105.193 49.6935 106.352 50.1722 107.207 51.0243C108.061 51.8764 108.541 53.0322 108.541 54.2372C108.541 54.8339 108.423 55.4248 108.194 55.9761C107.965 56.5273 107.63 57.0282 107.207 57.4502C106.783 57.8721 106.281 58.2068 105.728 58.4351C105.175 58.6635 104.583 58.781 103.984 58.781C103.386 58.781 102.793 58.6635 102.24 58.4351C101.687 58.2068 101.185 57.8721 100.762 57.4502C100.339 57.0282 100.003 56.5273 99.774 55.9761C99.545 55.4248 99.4271 54.8339 99.4271 54.2372C99.4271 53.0322 99.9072 51.8764 100.762 51.0243C101.616 50.1722 102.776 49.6935 103.984 49.6935Z" fill="#06DA1E"/>
<path d="M129.167 98.6235C129.937 98.6235 130.7 98.7747 131.411 99.0684C132.122 99.3622 132.769 99.7928 133.313 100.336C133.857 100.878 134.289 101.523 134.584 102.232C134.878 102.941 135.03 103.701 135.03 104.469C135.03 105.237 134.878 105.997 134.584 106.706C134.289 107.415 133.857 108.06 133.313 108.602C132.769 109.145 132.122 109.576 131.411 109.87C130.7 110.163 129.937 110.315 129.167 110.315C127.612 110.315 126.121 109.699 125.022 108.602C123.922 107.506 123.305 106.019 123.305 104.469C123.305 102.919 123.922 101.432 125.022 100.336C126.121 99.2393 127.612 98.6235 129.167 98.6235Z" fill="#06590A"/>
<path d="M129.054 73.0006C130.576 73.0006 132.035 73.6033 133.111 74.6761C134.187 75.7489 134.792 77.2038 134.792 78.721C134.792 80.2381 134.187 81.6931 133.111 82.7659C132.035 83.8387 130.576 84.4414 129.054 84.4414C127.533 84.4414 126.074 83.8387 124.998 82.7659C123.922 81.6931 123.317 80.2381 123.317 78.721C123.317 77.2038 123.922 75.7489 124.998 74.6761C126.074 73.6033 127.533 73.0006 129.054 73.0006Z" fill="#06590A"/>
<path d="M129.268 24.7841C130.826 24.7841 132.32 25.4013 133.422 26.4999C134.524 27.5985 135.143 29.0885 135.143 30.6422C135.143 32.1958 134.524 33.6858 133.422 34.7844C132.32 35.883 130.826 36.5002 129.268 36.5002C127.709 36.5002 126.215 35.883 125.113 34.7844C124.011 33.6858 123.392 32.1958 123.392 30.6422C123.392 29.0885 124.011 27.5985 125.113 26.4999C126.215 25.4013 127.709 24.7841 129.268 24.7841Z" fill="#06590A"/>
<path d="M129.167 124.484C130.676 124.484 132.122 125.082 133.189 126.145C134.255 127.208 134.854 128.651 134.854 130.154C134.854 131.658 134.255 133.101 133.189 134.164C132.122 135.227 130.676 135.825 129.167 135.825C128.42 135.825 127.681 135.678 126.991 135.393C126.301 135.108 125.674 134.691 125.146 134.164C124.618 133.637 124.199 133.012 123.913 132.324C123.627 131.636 123.48 130.899 123.48 130.154C123.48 129.41 123.627 128.672 123.913 127.985C124.199 127.297 124.618 126.671 125.146 126.145C125.674 125.618 126.301 125.201 126.991 124.916C127.681 124.631 128.42 124.484 129.167 124.484Z" fill="#06DA1E"/>
<path d="M154.112 124.334C155.663 124.334 157.151 124.948 158.249 126.042C159.346 127.136 159.962 128.62 159.962 130.167C159.962 131.714 159.346 133.198 158.249 134.292C157.151 135.385 155.663 136 154.112 136C152.56 136 151.072 135.385 149.975 134.292C148.878 133.198 148.262 131.714 148.262 130.167C148.262 128.62 148.878 127.136 149.975 126.042C151.072 124.948 152.56 124.334 154.112 124.334Z" fill="#06590A"/>
<path d="M154.112 98.7361C155.674 98.7361 157.171 99.3546 158.276 100.456C159.38 101.557 160 103.05 160 104.607C160 106.164 159.38 107.657 158.276 108.758C157.171 109.859 155.674 110.477 154.112 110.477C152.551 110.477 151.053 109.859 149.949 108.758C148.845 107.657 148.224 106.164 148.224 104.607C148.224 103.05 148.845 101.557 149.949 100.456C151.053 99.3546 152.551 98.7361 154.112 98.7361Z" fill="#06590A"/>
<path d="M154.112 24.7966C154.883 24.7966 155.647 24.9481 156.36 25.2425C157.073 25.5369 157.721 25.9684 158.266 26.5124C158.812 27.0564 159.245 27.7022 159.54 28.4129C159.835 29.1236 159.987 29.8854 159.987 30.6547C159.987 31.424 159.835 32.1857 159.54 32.8965C159.245 33.6072 158.812 34.253 158.266 34.797C157.721 35.3409 157.073 35.7724 156.36 36.0668C155.647 36.3612 154.883 36.5128 154.112 36.5128C153.34 36.5128 152.576 36.3612 151.864 36.0668C151.151 35.7724 150.503 35.3409 149.957 34.797C149.412 34.253 148.979 33.6072 148.684 32.8965C148.389 32.1857 148.237 31.424 148.237 30.6547C148.237 29.8854 148.389 29.1236 148.684 28.4129C148.979 27.7022 149.412 27.0564 149.957 26.5124C150.503 25.9684 151.151 25.5369 151.864 25.2425C152.576 24.9481 153.34 24.7966 154.112 24.7966Z" fill="#06590A"/>
</svg>
