<svg width="29" height="13" viewBox="0 0 29 13" fill="none" xmlns="http://www.w3.org/2000/svg">
<path d="M0.0644577 6.18818L13.765 0.00701825C13.7856 -0.00234587 13.8081 -0.00234587 13.8287 0.00701825L28.0703 6.27652C28.0883 6.28475 28.1037 6.29968 28.1147 6.31931C28.1256 6.33893 28.1315 6.36228 28.1315 6.38622C28.1315 6.41016 28.1256 6.43353 28.1147 6.45315C28.1037 6.47277 28.0883 6.48771 28.0703 6.49594L13.8218 12.5745C13.802 12.5832 13.7803 12.5832 13.7605 12.5745L0.0644577 6.41045C0.0457246 6.40283 0.0293978 6.38797 0.0178179 6.36801C0.00623794 6.34804 7.46144e-08 6.32399 7.49088e-08 6.2993C7.52031e-08 6.27462 0.00623794 6.25057 0.0178179 6.2306C0.0293978 6.21063 0.0457246 6.19579 0.0644577 6.18818Z" fill="#06DA1E"/>
</svg>
