<svg width="553" height="540" viewBox="0 0 553 540" fill="none" xmlns="http://www.w3.org/2000/svg">
<g opacity="0.4">
<path d="M1.47328 238.2C36.7236 258.023 73.3313 274.436 111.296 287.437C87.1918 112.201 254.569 11.2526 409.465 59.8562C419.022 62.8751 437.652 70.1015 465.354 81.5353C450.049 63.3224 431.89 48.5742 410.877 37.2912C234.845 -57.2403 26.7772 34.5392 1.47328 238.2Z" fill="#06590A"/>
<path d="M111.296 287.437C118.75 318.51 128.01 343.492 139.076 362.383C179.371 431.291 236.058 489.241 309.137 536.235C371.304 531.737 425.829 506.94 472.714 461.844C455.569 464.53 451.853 454.851 442.247 443.512C418.787 415.814 396.923 386.919 376.653 356.826C322.692 388.623 274.719 384.877 232.735 345.587C189.947 305.53 187.493 244.647 222.889 198.064C263.844 144.099 318.792 136.81 387.733 176.198C424.742 155.303 463.667 137.283 504.509 122.139C494.257 105.937 481.205 92.4031 465.354 81.5353C437.652 70.1015 419.022 62.8751 409.465 59.8562C254.569 11.2526 87.1918 112.201 111.296 287.437Z" fill="#06DA1E"/>
<path d="M504.509 122.139C463.667 137.283 424.742 155.303 387.733 176.198C438.091 230.129 437.434 311.029 376.653 356.826C396.923 386.919 418.787 415.814 442.247 443.512C451.853 454.851 455.569 464.53 472.714 461.844C563.068 370.728 581.401 228.642 504.509 122.139Z" fill="#06590A"/>
<path d="M1.47328 238.2C-16.6378 412.8 134.899 562.599 309.137 536.236C236.058 489.242 179.371 431.292 139.076 362.384C128.01 343.493 118.75 318.51 111.296 287.437C73.3313 274.436 36.7236 258.023 1.47328 238.2Z" fill="#1E1E1E"/>
</g>
</svg>
