<svg width="20" height="20" viewBox="0 0 20 20" fill="none" xmlns="http://www.w3.org/2000/svg">
<path d="M18.6443 0H1.08512C0.797326 0 0.521323 0.114325 0.317824 0.317824C0.114325 0.521323 0 0.797326 0 1.08512V18.6443C0 18.7868 0.0280675 18.9279 0.0825998 19.0595C0.137132 19.1912 0.217061 19.3108 0.317824 19.4116C0.418586 19.5124 0.538209 19.5923 0.669861 19.6468C0.801514 19.7013 0.942618 19.7294 1.08512 19.7294H10.5355V12.0843H7.97068V9.12485H10.5355V6.90529C10.4824 6.3842 10.5439 5.85779 10.7157 5.36298C10.8876 4.86818 11.1656 4.41697 11.5303 4.04099C11.895 3.66501 12.3376 3.37338 12.8269 3.18653C13.3162 2.99969 13.8405 2.92217 14.363 2.95941C15.1308 2.95469 15.8982 2.99421 16.6615 3.07779V5.74126H15.093C13.85 5.74126 13.6133 6.33314 13.6133 7.19137V9.09526H16.5727L16.188 12.0547H13.6133V19.7294H18.6443C18.7868 19.7294 18.9279 19.7013 19.0595 19.6468C19.1912 19.5923 19.3108 19.5124 19.4116 19.4116C19.5124 19.3108 19.5923 19.1912 19.6468 19.0595C19.7013 18.9279 19.7294 18.7868 19.7294 18.6443V1.08512C19.7294 0.942618 19.7013 0.801514 19.6468 0.669861C19.5923 0.538209 19.5124 0.418586 19.4116 0.317824C19.3108 0.217061 19.1912 0.137132 19.0595 0.0825998C18.9279 0.0280675 18.7868 0 18.6443 0Z" fill="#06590A"/>
</svg>
