<svg width="20" height="20" viewBox="0 0 20 20" fill="none" xmlns="http://www.w3.org/2000/svg">
<path d="M15.1325 3.41319C14.8983 3.41319 14.6695 3.48261 14.4748 3.61269C14.2801 3.74276 14.1284 3.92764 14.0388 4.14395C13.9492 4.36025 13.9258 4.59827 13.9714 4.82789C14.0171 5.05752 14.1299 5.26845 14.2954 5.434C14.461 5.59955 14.6719 5.7123 14.9015 5.75797C15.1311 5.80365 15.3692 5.78021 15.5855 5.69061C15.8018 5.60101 15.9866 5.44929 16.1167 5.25462C16.2468 5.05995 16.3162 4.83108 16.3162 4.59695C16.3162 4.283 16.1915 3.9819 15.9695 3.7599C15.7475 3.53791 15.4464 3.41319 15.1325 3.41319ZM19.6702 5.80045C19.651 4.98197 19.4977 4.17218 19.2164 3.40332C18.9656 2.74548 18.5752 2.14979 18.0721 1.65727C17.5837 1.15163 16.9866 0.763702 16.3261 0.522829C15.5593 0.232966 14.7486 0.0761654 13.929 0.0591882C12.8833 -5.51233e-08 12.5479 0 9.86471 0C7.18151 0 6.84611 -5.51233e-08 5.80045 0.0591882C4.98084 0.0761654 4.17015 0.232966 3.40332 0.522829C2.74404 0.766141 2.14748 1.15374 1.65727 1.65727C1.15163 2.14575 0.763702 2.74282 0.522829 3.40332C0.232966 4.17015 0.0761654 4.98084 0.0591882 5.80045C-5.51233e-08 6.84611 0 7.18151 0 9.86471C0 12.5479 -5.51233e-08 12.8833 0.0591882 13.929C0.0761654 14.7486 0.232966 15.5593 0.522829 16.3261C0.763702 16.9866 1.15163 17.5837 1.65727 18.0721C2.14748 18.5757 2.74404 18.9633 3.40332 19.2066C4.17015 19.4964 4.98084 19.6532 5.80045 19.6702C6.84611 19.7294 7.18151 19.7294 9.86471 19.7294C12.5479 19.7294 12.8833 19.7294 13.929 19.6702C14.7486 19.6532 15.5593 19.4964 16.3261 19.2066C16.9866 18.9657 17.5837 18.5778 18.0721 18.0721C18.5775 17.5815 18.9682 16.9852 19.2164 16.3261C19.4977 15.5572 19.651 14.7474 19.6702 13.929C19.6702 12.8833 19.7294 12.5479 19.7294 9.86471C19.7294 7.18151 19.7294 6.84611 19.6702 5.80045ZM17.8946 13.8106C17.8874 14.4368 17.774 15.0572 17.5592 15.6454C17.4017 16.0747 17.1487 16.4626 16.8193 16.7799C16.4994 17.1059 16.1122 17.3584 15.6849 17.5197C15.0967 17.7345 14.4762 17.8479 13.85 17.8551C12.8636 17.9044 12.4986 17.9143 9.90416 17.9143C7.30975 17.9143 6.94475 17.9143 5.95828 17.8551C5.30809 17.8673 4.66067 17.7672 4.04453 17.5592C3.63592 17.3896 3.26656 17.1377 2.95941 16.8193C2.63199 16.5024 2.38217 16.1142 2.22942 15.6849C1.98858 15.0882 1.855 14.4537 1.83484 13.8106C1.83484 12.8241 1.77565 12.4591 1.77565 9.86471C1.77565 7.27029 1.77565 6.90529 1.83484 5.91882C1.83926 5.27866 1.95612 4.64425 2.1801 4.04453C2.35377 3.62815 2.62033 3.25699 2.95941 2.95941C3.25911 2.62023 3.62951 2.35085 4.04453 2.17024C4.64583 1.95325 5.27959 1.83985 5.91882 1.83484C6.90529 1.83484 7.27029 1.77565 9.86471 1.77565C12.4591 1.77565 12.8241 1.77565 13.8106 1.83484C14.4368 1.84202 15.0572 1.95543 15.6454 2.17024C16.0937 2.33661 16.496 2.60709 16.8193 2.95941C17.1426 3.26243 17.3952 3.63291 17.5592 4.04453C17.7784 4.64522 17.8919 5.27937 17.8946 5.91882C17.9439 6.90529 17.9538 7.27029 17.9538 9.86471C17.9538 12.4591 17.9439 12.8241 17.8946 13.8106ZM9.86471 4.80411C8.86424 4.80606 7.8868 5.10452 7.05588 5.66177C6.22497 6.21902 5.57788 7.01005 5.19637 7.93493C4.81485 8.8598 4.71604 9.877 4.91242 10.858C5.1088 11.839 5.59155 12.7398 6.29968 13.4466C7.0078 14.1533 7.90953 14.6343 8.89092 14.8288C9.87231 15.0232 10.8893 14.9224 11.8134 14.5391C12.7376 14.1558 13.5274 13.5072 14.083 12.6752C14.6386 11.8432 14.9352 10.8652 14.9352 9.86471C14.9365 9.19894 14.8061 8.53949 14.5517 7.92427C14.2972 7.30906 13.9236 6.75023 13.4524 6.27992C12.9811 5.80961 12.4216 5.43711 11.8059 5.18383C11.1902 4.93056 10.5305 4.80151 9.86471 4.80411ZM9.86471 13.1497C9.215 13.1497 8.57989 12.957 8.03969 12.596C7.49948 12.2351 7.07844 11.722 6.82981 11.1218C6.58118 10.5216 6.51613 9.86106 6.64288 9.22384C6.76963 8.58663 7.08249 8.00131 7.5419 7.5419C8.00131 7.08249 8.58663 6.76963 9.22384 6.64288C9.86106 6.51613 10.5216 6.58118 11.1218 6.82981C11.722 7.07844 12.2351 7.49948 12.596 8.03969C12.957 8.57989 13.1497 9.215 13.1497 9.86471C13.1497 10.2961 13.0647 10.7233 12.8996 11.1218C12.7345 11.5203 12.4925 11.8825 12.1875 12.1875C11.8825 12.4925 11.5203 12.7345 11.1218 12.8996C10.7233 13.0647 10.2961 13.1497 9.86471 13.1497Z" fill="#06590A"/>
</svg>
