<svg width="33" height="46" viewBox="0 0 33 46" fill="none" xmlns="http://www.w3.org/2000/svg">
<path d="M12.6158 7.65203C14.6862 8.52948 15.5234 7.74858 15.1968 5.27778C14.9102 3.16096 12.9775 2.19945 12.393 3.85312C11.8486 5.35264 11.9898 7.38529 12.6158 7.65203Z" fill="#06DA1E"/>
<path d="M7.74398 10.0119C8.70181 10.3051 11.6921 9.94782 12.2977 9.4942C13.6166 8.49809 9.23736 8.02965 7.28671 8.96497C6.58447 9.28393 6.78615 9.7186 7.74398 10.0119Z" fill="#06DA1E"/>
<path d="M12.4216 11.1223C11.1208 13.3547 13.7483 16.5571 15.2717 14.5858C15.7133 14.0156 15.3449 11.6115 14.7399 11.1762C14.1359 10.7618 12.6598 10.7085 12.4216 11.1223Z" fill="#06DA1E"/>
<path d="M18.9872 9.28539C21.4666 8.6737 21.6864 8.58904 21.6668 8.20892C21.6248 7.39436 18.9355 7.41486 16.6677 8.21643C13.8293 9.25987 15.6886 10.1 18.9872 9.28539Z" fill="#06DA1E"/>
<path d="M15.7831 35.5553C14.6261 35.2789 10.7562 35.8207 10.7796 36.2686C10.8104 36.8598 12.1221 37.0972 14.2179 36.9038C16.8699 36.6351 17.6205 35.9922 15.7831 35.5553Z" fill="#06DA1E"/>
<path d="M28.033 10.9394C25.0985 12.4737 21.8037 15.5472 17.5447 17.9785C14.1728 19.8982 12.134 20.1365 9.75037 19.3406C6.92848 18.4281 5.49286 18.8994 6.90175 20.2799C9.0033 22.3423 8.77937 25.3277 6.3207 27.7766C4.20979 29.8733 6.6819 30.6161 9.99441 28.8858C12.1955 27.74 12.4455 27.7235 15.2655 28.5961C18.6869 29.6619 19.3844 29.4794 19.4093 27.5877C19.4115 25.6993 19.9774 23.6882 20.8919 22.309C22.3147 20.1122 27.5951 14.2172 29.3749 12.8318C31.792 10.9514 31.6349 9.06627 28.033 10.9394ZM17.3188 21.406C16.4278 22.8019 16.0091 24.0684 15.9589 25.4215C15.885 27.7221 15.9154 26.4321 12.1281 26.3037C10.851 26.2697 10.7115 26.2098 10.8077 25.8342C11.3689 23.7234 11.3304 22.9055 10.5776 21.4289C10.4777 21.2427 10.8415 21.2296 11.8962 21.3764C12.6983 21.48 13.9067 21.5039 14.5863 21.4245C16.0134 21.2557 17.0446 20.9039 17.7855 20.6749L17.3188 21.406Z" fill="#06DA1E"/>
<path d="M10.7188 35.1758C11.2132 33.738 11.1412 32.6784 10.513 32.2263C9.76394 31.6873 8.39122 31.8079 8.06915 32.4225C7.81187 32.9226 8.00023 33.4611 8.09565 34.5173C8.22675 35.8409 10.3067 36.3705 10.7188 35.1758Z" fill="#06DA1E"/>
<path d="M8.73059 39.0437C8.28874 39.7908 8.68317 43.1613 9.24608 43.4824C11.056 44.4916 11.9735 43.2053 11.3036 40.5786C10.8681 38.8968 9.34898 37.9935 8.73059 39.0437Z" fill="#06DA1E"/>
<path d="M2.68721 36.4473C2.06926 36.6415 2.06469 36.9894 2.71063 37.3397C3.40391 37.7383 7.5536 37.3171 7.72976 36.8178C8.08769 35.9281 5.07085 35.701 2.68721 36.4473Z" fill="#06DA1E"/>
</svg>
