<svg width="527" height="502" viewBox="0 0 527 502" fill="none" xmlns="http://www.w3.org/2000/svg">
<path d="M182.957 497.646C181.823 496.595 181.153 495.138 181.093 493.593C181.034 492.049 181.59 490.544 182.64 489.41L514.609 130.905C515.66 129.771 517.117 129.1 518.662 129.041C520.206 128.982 521.711 129.539 522.845 130.589L525.132 132.707C526.266 133.757 526.936 135.214 526.996 136.759C527.055 138.303 526.498 139.808 525.448 140.942L193.479 499.448C192.429 500.582 190.972 501.252 189.428 501.311C187.883 501.37 186.378 500.814 185.244 499.763L182.957 497.646Z" fill="#06590A" fill-opacity="0.6"/>
<path d="M30.4882 496.572C30.1076 496.223 29.7997 495.803 29.5815 495.335C29.3634 494.868 29.2393 494.361 29.2167 493.846C29.1942 493.33 29.2735 492.815 29.45 492.33C29.6265 491.845 29.897 491.399 30.2458 491.019L478.999 1.27497C479.704 0.506505 480.685 0.0492469 481.726 0.00375003C482.767 -0.0417468 483.784 0.328237 484.553 1.03235L489.349 5.42778C489.729 5.77649 490.038 6.19674 490.256 6.66456C490.474 7.13238 490.598 7.63859 490.62 8.1543C490.643 8.67 490.563 9.18511 490.387 9.67017C490.21 10.1552 489.94 10.6008 489.591 10.9814L40.8375 500.725C40.1333 501.493 39.1523 501.951 38.111 501.996C37.0697 502.042 36.0529 501.672 35.2844 500.968L30.4882 496.572Z" fill="#06590A" fill-opacity="0.6"/>
<path d="M1.30649 361.278C0.522326 360.564 0.054393 359.568 0.00444955 358.509C-0.0454939 357.45 0.326598 356.414 1.04013 355.63L322.662 2.16124C323.015 1.77284 323.442 1.45787 323.917 1.23428C324.392 1.0107 324.907 0.882877 325.431 0.858146C325.956 0.833414 326.48 0.91225 326.974 1.09014C327.468 1.26802 327.922 1.5415 328.31 1.89491L333.122 6.27339C333.906 6.98705 334.374 7.98298 334.424 9.04212C334.474 10.1013 334.102 11.1369 333.388 11.9212L11.7667 365.39C11.4133 365.778 10.9869 366.093 10.5118 366.317C10.0367 366.54 9.52164 366.668 8.99714 366.693C8.47264 366.718 7.94841 366.639 7.45438 366.461C6.96035 366.283 6.50677 366.01 6.11842 365.656L1.30649 361.278Z" fill="#06590A" fill-opacity="0.6"/>
</svg>
