<svg width="23" height="19" viewBox="0 0 23 19" fill="none" xmlns="http://www.w3.org/2000/svg">
<path d="M22.7647 2.18189C21.9091 2.54665 21.0043 2.78778 20.0785 2.89778C21.0553 2.32431 21.7873 1.42214 22.1387 0.358615C21.2208 0.895602 20.2159 1.27394 19.1679 1.47719C18.4674 0.730622 17.5345 0.233666 16.5156 0.064264C15.4967 -0.105138 14.4494 0.062594 13.5379 0.541155C12.6265 1.01972 11.9025 1.78204 11.4794 2.70856C11.0563 3.63508 10.9581 4.67339 11.2002 5.66066C9.34426 5.56841 7.52879 5.09349 5.87176 4.26676C4.21474 3.44003 2.75322 2.27998 1.58215 0.861974C1.1714 1.56686 0.95557 2.36514 0.956118 3.17742C0.954661 3.93177 1.14304 4.67477 1.50447 5.34026C1.8659 6.00575 2.38918 6.57309 3.02771 6.99176C2.28555 6.97192 1.55925 6.77621 0.910588 6.42129V6.47722C0.916151 7.53415 1.29303 8.55675 1.97747 9.37205C2.66192 10.1874 3.61191 10.7453 4.66676 10.9515C4.26071 11.073 3.83913 11.137 3.41471 11.1417C3.12092 11.1383 2.82786 11.1121 2.53826 11.0634C2.83866 11.9726 3.41997 12.7671 4.20131 13.3365C4.98266 13.9059 5.92517 14.2217 6.89771 14.2401C5.25546 15.51 3.2279 16.2031 1.13824 16.2088C0.757763 16.21 0.377593 16.1876 0 16.1417C2.13354 17.4955 4.61988 18.2141 7.1595 18.2111C8.91203 18.229 10.6506 17.9035 12.2737 17.2537C13.8968 16.6038 15.3719 15.6427 16.6128 14.4264C17.8537 13.21 18.8355 11.7629 19.5009 10.1695C20.1663 8.57614 20.5019 6.86841 20.4882 5.14611C20.4882 4.95596 20.4882 4.75461 20.4882 4.55327C21.3814 3.89869 22.1517 3.09624 22.7647 2.18189Z" fill="#06590A"/>
</svg>
