<svg width="45" height="78" viewBox="0 0 45 78" fill="none" xmlns="http://www.w3.org/2000/svg">
<path d="M24.3852 29.145C21.3861 28.0754 18.7992 26.1911 16.8377 23.6659C15.3279 21.7186 12.9594 17.9628 12.8199 17.2794C12.6025 16.2145 10.0438 16.7572 10.4656 18.8234C10.683 19.8883 11.0392 26.4273 9.03583 31.2158C7.14093 35.7728 6.31689 37.0757 4.60749 38.4005C3.62542 39.1473 3.84202 39.3367 5.40578 39.1509C9.27236 38.6946 11.4032 40.4149 16.5615 48.1386C19.5679 52.6222 20.7298 51.9935 20.587 45.9544C20.43 39.9551 22.7943 32.1401 25.2668 30.4122C26.0862 29.8495 25.9953 29.7308 24.3852 29.145ZM17.8066 42.6868L17.7074 44.2711C17.4745 44.0021 13.902 37.8353 9.75075 37.442C8.61731 37.3383 8.3898 37.2046 8.98698 36.9697C10.9021 36.2165 13.0865 31.1164 13.2203 26.9774C13.2991 25.0749 13.3479 24.987 14.1039 25.8572C15.6864 27.7244 17.9636 29.181 20.8879 30.2114L22.8079 30.8987C22.6235 31.1945 18.2758 34.4152 17.8066 42.6868Z" fill="#06DA1E"/>
<path d="M41.9479 46.8483C38.3543 46.0932 35.2965 43.4474 34.6992 40.5103C34.4373 39.2223 31.9259 38.6173 31.8385 42.6048C31.7473 47.5438 31.3302 49.0485 29.3989 51.7268C27.8062 53.9154 27.7668 53.8292 30.2423 53.3963C32.5492 52.996 34.6523 54.6103 36.5547 58.2545C37.7383 60.5194 40.1746 59.6777 39.7522 57.0619C39.1563 53.3776 39.8194 50.9277 42.0109 48.7745C43.3961 47.3972 43.3887 47.1456 41.9479 46.8483ZM39.683 48.6404C39.0113 49.1087 37.3493 51.1718 37.018 51.9132C36.5724 52.9541 36.5926 52.9461 35.7038 52.3464C34.9419 51.8323 33.3324 51.5676 32.3503 51.802C31.5944 51.9642 31.6084 51.9249 32.6028 50.5659C33.0846 49.9179 33.7 48.7421 33.9779 47.9539C34.6129 46.2276 34.4944 46.2915 35.5871 47.0314C36.4226 47.5843 37.7 48.0476 39.2519 48.3521C39.6788 48.4044 39.8357 48.5293 39.683 48.6404Z" fill="#06DA1E"/>
</svg>
