<svg width="543" height="542" viewBox="0 0 543 542" fill="none" xmlns="http://www.w3.org/2000/svg">
<g opacity="0.6">
<path d="M539.537 224.286C480.842 222.202 421.173 222.495 360.528 225.165C338.936 189.999 307.703 170.234 266.828 165.871C221.596 121.621 175.73 79.6658 129.23 40.0064C298.045 -58.0187 502.662 31.9474 539.537 224.286Z" fill="black"/>
<path d="M129.23 40.0064C175.73 79.6658 221.596 121.621 266.828 165.871C237.855 172.351 215.271 186.205 199.078 207.435C119.084 312.054 278.876 427.076 353.162 316.889C379.404 333.349 409.548 344.289 433.595 359.625C455.154 373.431 476.599 387.416 497.931 401.58C498.702 402.09 499.602 402.37 500.526 402.387C501.45 402.405 502.36 402.158 503.15 401.678C504.743 400.734 506.434 400.62 508.223 401.336C484.81 444.48 450.78 479.483 406.133 506.346C322.303 480.655 245.626 439.595 176.104 383.167C113.637 332.502 56.1951 280.241 3.77672 226.385C18.2796 150.583 56.9269 90.7521 119.718 46.8924C122.905 44.6782 126.075 42.3834 129.23 40.0064Z" fill="#06590A"/>
<path d="M539.537 224.286C549.162 287.226 538.724 346.243 508.223 401.336C506.434 400.62 504.743 400.734 503.15 401.678C502.36 402.158 501.45 402.405 500.526 402.387C499.602 402.37 498.702 402.09 497.931 401.58C476.599 387.416 455.154 373.431 433.595 359.625C409.548 344.289 379.404 333.349 353.162 316.889C370.006 287.779 372.461 257.205 360.528 225.165C421.173 222.495 480.842 222.202 539.537 224.286Z" fill="#06DA1E"/>
<path d="M3.77672 226.385C56.1951 280.241 113.637 332.502 176.104 383.167C245.626 439.595 322.303 480.655 406.133 506.346C356.056 534.934 304.256 546.33 250.732 540.535C91.9645 523.342 -22.5626 387.367 3.77672 226.385Z" fill="black"/>
</g>
</svg>
