<svg width="26" height="19" viewBox="0 0 26 19" fill="none" xmlns="http://www.w3.org/2000/svg">
<path d="M25.7941 6.4184C25.852 4.73324 25.4852 3.06069 24.7275 1.55605C24.2135 0.938659 23.5001 0.522018 22.7117 0.378725C19.4507 0.0814808 16.1762 -0.0403499 12.9022 0.013755C9.64014 -0.0428056 6.3774 0.0750938 3.12782 0.366952C2.48536 0.484351 1.89081 0.787071 1.41672 1.23817C0.361928 2.21535 0.24473 3.88715 0.127531 5.29994C-0.0425103 7.84009 -0.0425103 10.3888 0.127531 12.929C0.161437 13.7242 0.279296 14.5135 0.479127 15.2836C0.62044 15.8783 0.906343 16.4284 1.31124 16.8848C1.78855 17.3598 2.39695 17.6797 3.0575 17.8031C5.58421 18.1164 8.13012 18.2463 10.6754 18.1916C14.7774 18.2505 18.3754 18.1916 22.6297 17.862C23.3065 17.7462 23.932 17.4258 24.4228 16.9437C24.7509 16.6139 24.996 16.2103 25.1377 15.7663C25.5569 14.4744 25.7627 13.1222 25.7472 11.7634C25.7941 11.1041 25.7941 7.12479 25.7941 6.4184ZM10.2535 12.4698V5.18221L17.1917 8.84369C15.2462 9.92682 12.6795 11.1512 10.2535 12.4698Z" fill="#06590A"/>
</svg>
